<svg width="22" height="22" viewBox="0 0 22 22" fill="none" xmlns="http://www.w3.org/2000/svg">
<path d="M10.9917 21.8145C16.9102 21.8145 21.8076 16.917 21.8076 11.0068C21.8076 5.08838 16.9019 0.190918 10.9834 0.190918C5.07324 0.190918 0.184082 5.08838 0.184082 11.0068C0.184082 16.917 5.08154 21.8145 10.9917 21.8145ZM9.80469 16.2114C9.48926 16.2114 9.24854 16.0786 9.00781 15.7715L6.17725 12.3516C6.03613 12.1689 5.95312 11.9614 5.95312 11.7539C5.95312 11.3389 6.27686 10.9985 6.69189 10.9985C6.94922 10.9985 7.15674 11.0898 7.38086 11.3804L9.77148 14.3687L14.5693 6.74023C14.7354 6.46631 14.9761 6.31689 15.2251 6.31689C15.6235 6.31689 15.9888 6.59912 15.9888 7.02246C15.9888 7.22168 15.8809 7.4375 15.7729 7.61182L10.5684 15.7715C10.3774 16.062 10.1201 16.2114 9.80469 16.2114Z" fill="#007AFF"/>
</svg>
